<svg width="36" height="32" viewBox="0 0 36 32" fill="none" xmlns="http://www.w3.org/2000/svg">
<path d="M18.0482 7.48418C18.3887 7.48418 19.1978 7.69952 19.1978 7.69952C21.3895 8.20178 22.9323 10.2206 22.9323 12.5V18.6352L23.3804 19.0854L23.7548 19.4615H12.2454L12.6198 19.0854L13.0679 18.6352V12.5C13.0679 10.2207 14.6107 8.20178 16.8025 7.69952C16.8025 7.69952 17.6699 7.48418 17.952 7.48418M18.0001 4C17.1539 4 16.5069 4.6499 16.5069 5.5V6.19995C13.6696 6.8501 11.5295 9.45 11.5295 12.5V18L9.53857 20V21H26.4617V20L24.4707 18V12.5C24.4707 9.45 22.3305 6.8501 19.4933 6.19995V5.5C19.4933 4.6499 18.8464 4 18.0001 4ZM19.991 22H16.0092C16.0092 23.1 16.905 24 18.0001 24C19.0953 24 19.991 23.1 19.991 22Z" fill="white"/>
</svg>
