<svg width="20" height="29" viewBox="0 0 20 29" fill="none" xmlns="http://www.w3.org/2000/svg">
<g clip-path="url(#clip0_140_406)">
<path d="M0 0H20V29L0 25V0Z" fill="#F50723"/>
<path d="M4.08372 5.6C4.06505 5.504 4.05305 5.41067 4.04772 5.32C4.04239 5.22667 4.03972 5.144 4.03972 5.072C4.03972 4.99733 4.04239 4.91333 4.04772 4.82C4.05305 4.72667 4.06505 4.632 4.08372 4.536H8.04372C8.06505 4.60267 8.08105 4.68133 8.09172 4.772C8.10239 4.86 8.10772 4.94533 8.10772 5.028C8.10772 5.236 8.05305 5.384 7.94372 5.472C7.83705 5.55733 7.66905 5.6 7.43972 5.6H7.20372C7.14505 5.6 7.06105 5.59867 6.95172 5.596C6.84505 5.59333 6.76105 5.592 6.69972 5.592H5.41572C5.35705 5.592 5.27305 5.59333 5.16372 5.596C5.05439 5.59867 4.97039 5.6 4.91172 5.6H4.08372ZM5.41572 6.184C5.41572 6.07467 5.41705 5.97733 5.41972 5.892C5.42239 5.804 5.42372 5.704 5.42372 5.592V5.064H6.69172V5.592C6.69172 5.704 6.69305 5.804 6.69572 5.892C6.69839 5.97733 6.69972 6.07467 6.69972 6.184V10C6.59039 10.0187 6.47839 10.0307 6.36372 10.036C6.24905 10.0413 6.14772 10.044 6.05972 10.044C5.96905 10.044 5.86639 10.0413 5.75172 10.036C5.63705 10.0307 5.52505 10.0187 5.41572 10V6.184ZM9.07322 7.264C9.07322 7.47467 9.08389 7.68933 9.10522 7.908C9.12922 8.12667 9.17589 8.32933 9.24522 8.516C9.31722 8.7 9.42255 8.84933 9.56122 8.964C9.69989 9.07867 9.88389 9.136 10.1132 9.136C10.3452 9.136 10.5292 9.07867 10.6652 8.964C10.8039 8.84933 10.9079 8.7 10.9772 8.516C11.0492 8.32933 11.0959 8.12667 11.1172 7.908C11.1412 7.68933 11.1532 7.47467 11.1532 7.264C11.1532 7.05333 11.1412 6.84 11.1172 6.624C11.0959 6.40533 11.0492 6.204 10.9772 6.02C10.9079 5.83333 10.8039 5.684 10.6652 5.572C10.5292 5.45733 10.3452 5.4 10.1132 5.4C9.88389 5.4 9.69989 5.45733 9.56122 5.572C9.42255 5.684 9.31722 5.83333 9.24522 6.02C9.17589 6.204 9.12922 6.40533 9.10522 6.624C9.08389 6.84 9.07322 7.05333 9.07322 7.264ZM7.73722 7.264C7.73722 6.69333 7.82255 6.19467 7.99322 5.768C8.16655 5.34133 8.42789 5.01067 8.77722 4.776C9.12922 4.53867 9.57455 4.42 10.1132 4.42C10.5186 4.42 10.8706 4.488 11.1692 4.624C11.4679 4.76 11.7146 4.95333 11.9092 5.204C12.1066 5.45467 12.2532 5.75467 12.3492 6.104C12.4452 6.45333 12.4932 6.84 12.4932 7.264C12.4932 7.83733 12.4066 8.33867 12.2332 8.768C12.0599 9.19467 11.7972 9.52667 11.4452 9.764C11.0959 9.99867 10.6519 10.116 10.1132 10.116C9.70789 10.116 9.35589 10.048 9.05722 9.912C8.75855 9.776 8.51189 9.58267 8.31722 9.332C8.12255 9.07867 7.97722 8.77733 7.88122 8.428C7.78522 8.07867 7.73722 7.69067 7.73722 7.264ZM16.7573 6.392C16.7573 6.808 16.672 7.15733 16.5013 7.44C16.3333 7.72 16.1013 7.932 15.8053 8.076C15.512 8.21733 15.176 8.288 14.7973 8.288H13.6253V7.352C13.6973 7.34667 13.808 7.34133 13.9573 7.336C14.1067 7.33067 14.252 7.32667 14.3933 7.324C14.5373 7.31867 14.636 7.316 14.6893 7.316C14.9027 7.316 15.064 7.26533 15.1733 7.164C15.2827 7.06267 15.356 6.94133 15.3933 6.8C15.4307 6.656 15.4493 6.52 15.4493 6.392C15.4493 6.26667 15.4307 6.13333 15.3933 5.992C15.356 5.848 15.2827 5.72533 15.1733 5.624C15.064 5.52267 14.9027 5.472 14.6893 5.472C14.6093 5.472 14.5293 5.472 14.4493 5.472C14.372 5.46933 14.2787 5.46667 14.1693 5.464V10C14.0627 10.0187 13.9493 10.0307 13.8293 10.036C13.712 10.0413 13.6107 10.044 13.5253 10.044C13.448 10.044 13.3467 10.0413 13.2213 10.036C13.0987 10.0307 12.9867 10.0187 12.8853 10V4.576L12.9413 4.52C13.2827 4.51467 13.6013 4.50933 13.8973 4.504C14.196 4.496 14.496 4.492 14.7973 4.492C15.176 4.492 15.512 4.56 15.8053 4.696C16.1013 4.832 16.3333 5.04133 16.5013 5.324C16.672 5.604 16.7573 5.96 16.7573 6.392Z" fill="white"/>
<path d="M7.36749 16.387C7.36749 16.5603 7.36533 16.738 7.36099 16.92C7.35666 17.102 7.35449 17.284 7.35449 17.466V18.194H5.41099V17.466C5.41099 17.284 5.40883 17.102 5.40449 16.92C5.40016 16.738 5.39799 16.5603 5.39799 16.387V14.879C5.39799 14.7057 5.40666 14.489 5.42399 14.229C5.44566 13.9647 5.46516 13.696 5.48249 13.423C5.50416 13.15 5.51283 12.9117 5.50849 12.708L5.45649 10.771C5.63416 10.7363 5.80099 10.7147 5.95699 10.706C6.11733 10.6973 6.26899 10.693 6.41199 10.693C6.55499 10.693 6.70449 10.6973 6.86049 10.706C7.02083 10.7147 7.18983 10.7363 7.36749 10.771V16.387ZM4.57899 17.336C4.67433 17.336 4.81733 17.3382 5.00799 17.3425C5.19866 17.3468 5.34166 17.349 5.43699 17.349H7.32849C7.42816 17.349 7.57983 17.3468 7.78349 17.3425C7.99149 17.3382 8.14316 17.336 8.23849 17.336H8.94049C9.00549 17.609 9.03799 17.8863 9.03799 18.168C9.03799 18.441 9.00549 18.7183 8.94049 19H3.51949C3.48916 18.87 3.46316 18.7335 3.44149 18.5905C3.42416 18.4432 3.41549 18.3023 3.41549 18.168C3.41549 17.8777 3.45016 17.6003 3.51949 17.336H4.57899ZM2.91499 13.4035C3.56066 12.9962 4.08499 12.5802 4.48799 12.1555C4.89533 11.7265 5.21816 11.265 5.45649 10.771L6.14549 12.318C6.01116 12.6733 5.81399 12.9983 5.55399 13.293C5.29399 13.5833 5.00583 13.8368 4.68949 14.0535C4.37316 14.2658 4.06333 14.4392 3.75999 14.5735C3.56066 14.4825 3.37866 14.3287 3.21399 14.112C3.05366 13.891 2.95399 13.6548 2.91499 13.4035ZM8.955 14.8855C8.955 14.1922 9.007 13.5508 9.111 12.9615C9.215 12.3678 9.4685 11.8478 9.8715 11.4015C10.1228 11.1632 10.411 10.9682 10.736 10.8165C11.061 10.6605 11.4857 10.5825 12.01 10.5825C12.543 10.5825 12.9698 10.6605 13.2905 10.8165C13.6112 10.9682 13.8972 11.1632 14.1485 11.4015C14.5472 11.8478 14.7985 12.3678 14.9025 12.9615C15.0108 13.5508 15.065 14.1922 15.065 14.8855C15.065 15.5745 15.0108 16.2158 14.9025 16.8095C14.7985 17.3988 14.5472 17.9188 14.1485 18.3695C13.8972 18.6078 13.6112 18.805 13.2905 18.961C12.9698 19.1127 12.543 19.1885 12.01 19.1885C11.4857 19.1885 11.061 19.1127 10.736 18.961C10.411 18.805 10.1228 18.6078 9.8715 18.3695C9.47283 17.9188 9.21933 17.3988 9.111 16.8095C9.007 16.2158 8.955 15.5745 8.955 14.8855ZM11.035 14.8855C11.035 15.4618 11.0523 15.9407 11.087 16.322C11.126 16.7033 11.1867 16.9872 11.269 17.1735C11.3383 17.3425 11.4402 17.4638 11.5745 17.5375C11.7088 17.6112 11.854 17.648 12.01 17.648C12.1747 17.648 12.3242 17.6133 12.4585 17.544C12.5928 17.4703 12.6903 17.3468 12.751 17.1735C12.8247 16.9872 12.881 16.7033 12.92 16.322C12.9633 15.9407 12.985 15.4618 12.985 14.8855C12.985 14.2962 12.9633 13.8152 12.92 13.4425C12.881 13.0655 12.8247 12.7838 12.751 12.5975C12.6817 12.4285 12.582 12.3072 12.452 12.2335C12.322 12.1598 12.1747 12.123 12.01 12.123C11.854 12.123 11.7088 12.1598 11.5745 12.2335C11.4402 12.3072 11.3383 12.4285 11.269 12.5975C11.1953 12.7838 11.1368 13.0655 11.0935 13.4425C11.0545 13.8152 11.035 14.2962 11.035 14.8855Z" fill="white"/>
</g>
<defs>
<clipPath id="clip0_140_406">
<path d="M0 0H18C19.1046 0 20 0.895431 20 2V29H0V0Z" fill="white"/>
</clipPath>
</defs>
</svg>
